<svg xmlns="http://www.w3.org/2000/svg" viewBox="0 0 256 256" width="256" height="256" fill="none">
<title>ClawHunt mark</title><defs><linearGradient id="cpg" gradientUnits="userSpaceOnUse" x1="20.0" y1="64" x2="236.0" y2="200"><stop offset="0" stop-color="#0F89E4"/><stop offset="0.5" stop-color="#3A5BEA"/><stop offset="1" stop-color="#7C3AED"/></linearGradient><clipPath id="lh"><rect x="0" y="0" width="129" height="256"/></clipPath><mask id="crabmask"><g clip-path="url(#lh)"><path fill="#fff" fill-rule="evenodd" d="M206.38,213.24 197.71,226.97 196.27,230.58 199.16,228.41 199.16,227.69 207.83,218.3 208.55,216.86 207.83,216.86 206.38,219.02 204.94,217.58Z M41.67,197.35 42.39,208.91 61.9,231.3 51.06,212.52 48.17,215.41 46.73,211.8 48.9,208.91Z M180.37,191.57 173.87,186.52 169.54,185.07 152.92,200.96 159.42,207.46 160.15,206.74 161.59,207.46 167.37,203.13 170.26,198.8 172.43,199.52 178.93,196.63 181.1,193.74Z M74.9,193.02 81.4,198.8 87.18,200.24 96.58,208.19 98.74,207.46 104.52,200.96 87.91,185.07Z M228.05,177.85 227.33,181.46 223.72,179.29 224.44,182.9 209.27,208.19 214.33,203.13 217.22,197.35 219.38,197.35 224.44,191.57 227.33,190.13 227.33,187.96 228.78,186.52 228.05,185.07 229.5,183.63 229.5,180.01Z M33.73,168.45 20.0,180.01 38.06,203.13 36.62,196.63 36.62,188.68 33.73,182.9 35.17,179.29 33.73,178.57Z M191.21,159.79 173.15,179.29 192.66,193.02 181.1,219.75 200.6,208.19 202.77,203.13 199.16,202.41 204.21,194.46 199.88,180.74 201.32,172.07 208.55,176.4Z M189.77,207.46 189.77,206.02 191.21,205.3 191.93,203.85 194.82,204.58 195.55,205.3 196.27,203.85 200.6,203.85 201.32,204.58 200.6,207.46 197.71,210.35 194.82,209.63 196.27,210.35 194.82,211.8 193.38,211.8 191.21,207.46 190.49,208.19Z M194.82,179.29 196.27,179.29 196.99,180.01 197.71,180.01 201.32,183.63 201.32,187.24 199.16,189.4 198.43,189.4 197.71,190.13 194.82,190.13 194.1,189.4 193.38,189.4 191.21,186.52 191.21,182.9 191.93,182.18 191.93,181.46Z M195.55,164.84 196.99,166.29 197.71,166.29 198.43,167.01 198.43,167.73 199.16,167.73 200.6,169.18 200.6,170.62 199.16,172.07 198.43,171.34 198.43,169.9 197.71,169.18 196.27,169.18 194.1,167.01 194.82,166.29 194.82,165.57Z M66.23,159.06 42.39,183.63 58.29,209.63 78.52,220.47 69.12,203.13 66.23,192.29 85.02,180.01Z M59.73,179.29 64.07,180.74 66.23,183.63 66.23,186.52 65.51,187.24 65.51,187.96 61.9,190.13 59.73,190.13 59.01,189.4 58.29,189.4 55.4,186.52 55.4,182.9 58.29,180.01 59.01,180.01Z M147.14,150.39 144.98,152.56 144.98,153.28 144.25,154.01 144.98,154.73 144.98,156.17 146.42,157.62 147.14,157.62 147.87,158.34 148.59,157.62 150.76,157.62 152.2,155.45 152.2,153.28 150.76,151.12 150.03,151.12 149.31,150.39Z M108.13,150.39 105.24,153.28 105.24,155.45 106.69,157.62 107.41,157.62 108.13,158.34 110.3,158.34 112.47,156.9 112.47,156.17 113.19,155.45 113.19,153.28 111.75,151.12 111.02,151.12 110.3,150.39Z M185.43,142.45 191.93,151.84 213.61,171.34 215.05,171.34 216.49,163.4 200.6,151.12Z M215.05,163.4 215.77,164.12 215.77,166.29 215.05,167.01 215.05,167.73 214.33,168.45 213.61,168.45 212.88,167.73 212.88,164.84 213.61,164.12 214.33,164.12Z M72.74,142.45 61.9,147.51 41.67,162.68 41.67,170.62 38.78,172.79 38.06,171.34 38.78,174.96 43.12,172.79 57.57,159.79Z M71.29,151.84 113.19,146.78 117.53,156.17 112.47,161.95 72.01,157.62 108.86,198.07 148.59,198.07 185.43,156.9 146.42,162.68 140.64,151.12 145.7,146.06 186.15,151.12 155.09,123.67 103.08,123.67Z M230.22,100.55 200.6,100.55 179.65,134.5 209.99,150.39 213.61,148.23 230.22,115.0 216.49,143.17 212.88,137.39 217.94,118.61 222.27,120.05 217.94,111.38 223.0,107.77 219.38,111.38 207.83,101.99Z M214.33,143.89 215.77,145.34 215.77,146.06 214.33,147.51 212.88,147.51 210.72,149.67 209.99,149.67 208.55,148.23 208.55,147.51 209.27,146.78 209.99,146.78 210.72,146.06 211.44,146.06 212.16,145.34 212.88,145.34 212.88,144.62 213.61,143.89Z M20.0,100.55 41.67,146.06 47.45,150.39 77.79,135.22 56.84,100.55Z M157.26,76.71 170.26,114.27 181.1,122.94 191.21,107.05 189.04,107.05 190.49,104.16 180.37,100.55Z M100.19,76.71 77.79,99.83 65.51,105.61 76.35,122.94 87.91,113.55 94.41,97.66Z M154.37,24.7 187.6,68.76 199.88,96.21 205.66,77.43 208.55,90.43 204.94,96.21 236.0,96.21 210.72,94.77 217.94,90.43 216.49,67.32 203.49,44.92Z M209.27,80.32 210.72,81.77 210.72,86.1 209.99,86.82 209.27,86.1 209.27,82.49 208.55,81.77 208.55,81.04Z M103.08,24.7 45.28,48.54 20.0,96.21 49.62,96.21 46.01,90.43 48.17,67.32 50.34,90.43 58.29,96.21 69.85,69.48Z"/></g><g clip-path="url(#lh)" transform="matrix(-1,0,0,1,256,0)"><path fill="#fff" fill-rule="evenodd" d="M206.38,213.24 197.71,226.97 196.27,230.58 199.16,228.41 199.16,227.69 207.83,218.3 208.55,216.86 207.83,216.86 206.38,219.02 204.94,217.58Z M41.67,197.35 42.39,208.91 61.9,231.3 51.06,212.52 48.17,215.41 46.73,211.8 48.9,208.91Z M180.37,191.57 173.87,186.52 169.54,185.07 152.92,200.96 159.42,207.46 160.15,206.74 161.59,207.46 167.37,203.13 170.26,198.8 172.43,199.52 178.93,196.63 181.1,193.74Z M74.9,193.02 81.4,198.8 87.18,200.24 96.58,208.19 98.74,207.46 104.52,200.96 87.91,185.07Z M228.05,177.85 227.33,181.46 223.72,179.29 224.44,182.9 209.27,208.19 214.33,203.13 217.22,197.35 219.38,197.35 224.44,191.57 227.33,190.13 227.33,187.96 228.78,186.52 228.05,185.07 229.5,183.63 229.5,180.01Z M33.73,168.45 20.0,180.01 38.06,203.13 36.62,196.63 36.62,188.68 33.73,182.9 35.17,179.29 33.73,178.57Z M191.21,159.79 173.15,179.29 192.66,193.02 181.1,219.75 200.6,208.19 202.77,203.13 199.16,202.41 204.21,194.46 199.88,180.74 201.32,172.07 208.55,176.4Z M189.77,207.46 189.77,206.02 191.21,205.3 191.93,203.85 194.82,204.58 195.55,205.3 196.27,203.85 200.6,203.85 201.32,204.58 200.6,207.46 197.71,210.35 194.82,209.63 196.27,210.35 194.82,211.8 193.38,211.8 191.21,207.46 190.49,208.19Z M194.82,179.29 196.27,179.29 196.99,180.01 197.71,180.01 201.32,183.63 201.32,187.24 199.16,189.4 198.43,189.4 197.71,190.13 194.82,190.13 194.1,189.4 193.38,189.4 191.21,186.52 191.21,182.9 191.93,182.18 191.93,181.46Z M195.55,164.84 196.99,166.29 197.71,166.29 198.43,167.01 198.43,167.73 199.16,167.73 200.6,169.18 200.6,170.62 199.16,172.07 198.43,171.34 198.43,169.9 197.71,169.18 196.27,169.18 194.1,167.01 194.82,166.29 194.82,165.57Z M66.23,159.06 42.39,183.63 58.29,209.63 78.52,220.47 69.12,203.13 66.23,192.29 85.02,180.01Z M59.73,179.29 64.07,180.74 66.23,183.63 66.23,186.52 65.51,187.24 65.51,187.96 61.9,190.13 59.73,190.13 59.01,189.4 58.29,189.4 55.4,186.52 55.4,182.9 58.29,180.01 59.01,180.01Z M147.14,150.39 144.98,152.56 144.98,153.28 144.25,154.01 144.98,154.73 144.98,156.17 146.42,157.62 147.14,157.62 147.87,158.34 148.59,157.62 150.76,157.62 152.2,155.45 152.2,153.28 150.76,151.12 150.03,151.12 149.31,150.39Z M108.13,150.39 105.24,153.28 105.24,155.45 106.69,157.62 107.41,157.62 108.13,158.34 110.3,158.34 112.47,156.9 112.47,156.17 113.19,155.45 113.19,153.28 111.75,151.12 111.02,151.12 110.3,150.39Z M185.43,142.45 191.93,151.84 213.61,171.34 215.05,171.34 216.49,163.4 200.6,151.12Z M215.05,163.4 215.77,164.12 215.77,166.29 215.05,167.01 215.05,167.73 214.33,168.45 213.61,168.45 212.88,167.73 212.88,164.84 213.61,164.12 214.33,164.12Z M72.74,142.45 61.9,147.51 41.67,162.68 41.67,170.62 38.78,172.79 38.06,171.34 38.78,174.96 43.12,172.79 57.57,159.79Z M71.29,151.84 113.19,146.78 117.53,156.17 112.47,161.95 72.01,157.62 108.86,198.07 148.59,198.07 185.43,156.9 146.42,162.68 140.64,151.12 145.7,146.06 186.15,151.12 155.09,123.67 103.08,123.67Z M230.22,100.55 200.6,100.55 179.65,134.5 209.99,150.39 213.61,148.23 230.22,115.0 216.49,143.17 212.88,137.39 217.94,118.61 222.27,120.05 217.94,111.38 223.0,107.77 219.38,111.38 207.83,101.99Z M214.33,143.89 215.77,145.34 215.77,146.06 214.33,147.51 212.88,147.51 210.72,149.67 209.99,149.67 208.55,148.23 208.55,147.51 209.27,146.78 209.99,146.78 210.72,146.06 211.44,146.06 212.16,145.34 212.88,145.34 212.88,144.62 213.61,143.89Z M20.0,100.55 41.67,146.06 47.45,150.39 77.79,135.22 56.84,100.55Z M157.26,76.71 170.26,114.27 181.1,122.94 191.21,107.05 189.04,107.05 190.49,104.16 180.37,100.55Z M100.19,76.71 77.79,99.83 65.51,105.61 76.35,122.94 87.91,113.55 94.41,97.66Z M154.37,24.7 187.6,68.76 199.88,96.21 205.66,77.43 208.55,90.43 204.94,96.21 236.0,96.21 210.72,94.77 217.94,90.43 216.49,67.32 203.49,44.92Z M209.27,80.32 210.72,81.77 210.72,86.1 209.99,86.82 209.27,86.1 209.27,82.49 208.55,81.77 208.55,81.04Z M103.08,24.7 45.28,48.54 20.0,96.21 49.62,96.21 46.01,90.43 48.17,67.32 50.34,90.43 58.29,96.21 69.85,69.48Z"/></g></mask></defs>
<rect width="256" height="256" fill="url(#cpg)" mask="url(#crabmask)"/></svg>